<svg width="852" height="405" viewBox="0 0 852 405" fill="none" xmlns="http://www.w3.org/2000/svg">
<path d="M44.5375 322.092C-68.7278 180.77 49.5888 -17.2947 224.921 1.20779C297.169 8.83164 354.25 52.2603 398.09 107.813C403.314 114.499 410.42 123.395 414.22 130.799C410 126.591 400.174 113.294 396.067 108.021C352.557 55.0304 292.926 12.7355 223.161 5.89431C169.699 0.431728 116.269 16.5301 74.7211 50.6189C36.7268 82.0713 10.1048 132.053 5.56579 181.2C0.776497 233.054 18.7732 283.946 51.8881 323.692C88.6614 366.971 141.1 393.89 197.696 398.541C281.355 405.898 350.965 366.777 419.474 324.42C464.812 296.392 508.644 266.152 553.217 236.955C595.257 209.559 642.506 178.536 690.985 164.89C719.286 157.512 745.489 154.798 773.731 163.498C842.423 184.659 872.201 256.134 835.138 318.379C816.715 348.835 786.937 370.72 752.377 379.214C735.109 383.536 713.102 384.13 695.444 381.575C690.818 381.092 686.803 380.338 682.53 379.455L678.138 378.534C675.32 377.889 670.673 377.07 668.357 375.673C672.314 375.413 677.441 376.753 681.436 377.587C687.492 378.771 691.802 379.331 697.948 379.967L699.546 380.157C716.131 381.992 734.578 379.79 750.683 376.039C808.868 362.486 859.977 300.525 843.435 238.904C836.599 213.22 819.683 191.387 796.524 178.36C763.838 159.674 728.183 159.465 692.604 169.096C649.957 180.591 608.373 206.442 571.43 230.257C517.615 264.951 465.224 301.891 410.292 334.902C369.651 359.324 330.04 381.967 283.951 394.854C254.251 403.387 223.177 406.077 192.452 402.773C134.379 396.632 81.1466 367.596 44.5375 322.092Z" fill="#EA110E"/>
</svg>
