<svg width="846" height="412" viewBox="0 0 846 412" fill="none" xmlns="http://www.w3.org/2000/svg">
<path d="M95.3349 32.3641C140.828 3.25796 195.953 -6.74816 248.769 4.51353C312.506 18.4369 362.941 64.7739 397.235 118.473C410.998 140.106 422.66 163.002 432.08 186.848C421.115 170.658 410.555 155.156 397.782 140.268C361.529 98.0309 311.248 62.4632 255.858 51.8407C210.161 42.6698 162.694 52.098 123.967 78.037C89.616 101.278 65.8722 137.189 57.9364 177.904C50.5371 217.4 60.869 257.572 83.3974 290.488C110.917 330.697 154.914 357.222 202.501 366.101C407.637 404.376 607.843 107.979 769.333 158.584C793.265 166.084 813.762 180.166 828.095 200.908C843.455 223.529 849.163 251.339 843.973 278.183C830.533 351.268 750.98 393.03 681.973 378.139C673.993 376.417 666.987 374.613 659.18 372.195C651.147 369.298 644.255 366.779 636.477 363.311C643.351 364.372 653.293 368.279 661.545 370.065L662.338 370.231L664.285 370.659C705.105 379.466 740.631 377.231 777.088 355C849.38 310.926 853.407 203.84 759.095 182.902C693.35 168.305 627.252 214.01 573.867 246.973C454.512 322.209 319.778 436.396 168.664 407.001C113.639 396.297 64.2686 362.463 33.0341 316.001C-29.8667 222.432 0.428465 93.4192 95.3349 32.3641Z" fill="black"/>
</svg>
