<svg viewBox="0 0 540 1080" width="540" height="1080" style="display:block;" xmlns="http://www.w3.org/2000/svg"><circle cx="432" cy="157" r="0.67" fill="#BAD1C7" fill-opacity="0.08"/><circle cx="443" cy="157" r="0.72" fill="#B8D1C6" fill-opacity="0.09"/><circle cx="454" cy="157" r="0.78" fill="#B6D1C5" fill-opacity="0.10"/><circle cx="465" cy="157" r="0.84" fill="#B5D2C4" fill-opacity="0.11"/><circle cx="476" cy="157" r="0.88" fill="#B4D2C3" fill-opacity="0.12"/><circle cx="487" cy="157" r="0.92" fill="#B2D2C3" fill-opacity="0.13"/><circle cx="498" cy="157" r="0.96" fill="#B1D2C2" fill-opacity="0.14"/><circle cx="509" cy="157" r="0.99" fill="#B1D2C2" fill-opacity="0.14"/><circle cx="520" cy="157" r="1.01" fill="#B0D2C1" fill-opacity="0.15"/><circle cx="531" cy="157" r="1.02" fill="#B0D2C1" fill-opacity="0.15"/><circle cx="542" cy="157" r="1.02" fill="#B0D2C1" fill-opacity="0.15"/><circle cx="553" cy="157" r="1.00" fill="#B0D2C1" fill-opacity="0.15"/><circle cx="388" cy="168" r="0.66" fill="#BAD1C8" fill-opacity="0.08"/><circle cx="399" cy="168" r="0.77" fill="#B7D1C6" fill-opacity="0.10"/><circle cx="410" cy="168" r="0.89" fill="#B3D2C3" fill-opacity="0.12"/><circle cx="421" cy="168" r="1.02" fill="#B0D2C1" fill-opacity="0.15"/><circle cx="432" cy="168" r="1.16" fill="#ACD3BE" fill-opacity="0.18"/><circle cx="443" cy="168" r="1.28" fill="#A8D3BC" fill-opacity="0.20"/><circle cx="454" cy="168" r="1.38" fill="#A5D3BA" fill-opacity="0.22"/><circle cx="465" cy="168" r="1.46" fill="#A3D4B9" fill-opacity="0.23"/><circle cx="476" cy="168" r="1.52" fill="#A1D4B8" fill-opacity="0.24"/><circle cx="487" cy="168" r="1.57" fill="#A0D4B7" fill-opacity="0.25"/><circle cx="498" cy="168" r="1.60" fill="#9FD4B6" fill-opacity="0.26"/><circle cx="509" cy="168" r="1.64" fill="#9ED4B6" fill-opacity="0.27"/><circle cx="520" cy="168" r="1.67" fill="#9DD4B5" fill-opacity="0.27"/><circle cx="531" cy="168" r="1.70" fill="#9CD4B5" fill-opacity="0.28"/><circle cx="542" cy="168" r="1.72" fill="#9CD4B4" fill-opacity="0.28"/><circle cx="553" cy="168" r="1.71" fill="#9CD4B4" fill-opacity="0.28"/><circle cx="366" cy="179" r="0.74" fill="#B8D1C6" fill-opacity="0.10"/><circle cx="377" cy="179" r="0.91" fill="#B3D2C3" fill-opacity="0.13"/><circle cx="388" cy="179" r="1.12" fill="#ADD2BF" fill-opacity="0.17"/><circle cx="399" cy="179" r="1.34" fill="#A7D3BB" fill-opacity="0.21"/><circle cx="410" cy="179" r="1.53" fill="#A1D4B8" fill-opacity="0.25"/><circle cx="421" cy="179" r="1.68" fill="#9DD4B5" fill-opacity="0.28"/><circle cx="432" cy="179" r="1.79" fill="#9AD5B3" fill-opacity="0.30"/><circle cx="443" cy="179" r="1.84" fill="#98D5B2" fill-opacity="0.31"/><circle cx="454" cy="179" r="1.85" fill="#98D5B2" fill-opacity="0.31"/><circle cx="465" cy="179" r="1.84" fill="#98D5B2" fill-opacity="0.31"/><circle cx="476" cy="179" r="1.83" fill="#99D5B2" fill-opacity="0.30"/><circle cx="487" cy="179" r="1.81" fill="#99D5B3" fill-opacity="0.30"/><circle cx="498" cy="179" r="1.80" fill="#99D5B3" fill-opacity="0.30"/><circle cx="509" cy="179" r="1.81" fill="#99D5B2" fill-opacity="0.30"/><circle cx="520" cy="179" r="1.84" fill="#98D5B2" fill-opacity="0.31"/><circle cx="531" cy="179" r="1.89" fill="#97D5B1" fill-opacity="0.32"/><circle cx="542" cy="179" r="1.96" fill="#95D5B0" fill-opacity="0.33"/><circle cx="553" cy="179" r="2.02" fill="#93D5AF" fill-opacity="0.34"/><circle cx="344" cy="190" r="0.76" fill="#B7D1C6" fill-opacity="0.10"/><circle cx="355" cy="190" r="0.98" fill="#B1D2C2" fill-opacity="0.14"/><circle cx="366" cy="190" r="1.26" fill="#A9D3BD" fill-opacity="0.19"/><circle cx="377" cy="190" r="1.53" fill="#A1D4B8" fill-opacity="0.25"/><circle cx="388" cy="190" r="1.76" fill="#9BD4B3" fill-opacity="0.29"/><circle cx="399" cy="190" r="1.89" fill="#97D5B1" fill-opacity="0.32"/><circle cx="410" cy="190" r="1.93" fill="#96D5B0" fill-opacity="0.32"/><circle cx="421" cy="190" r="1.88" fill="#97D5B1" fill-opacity="0.31"/><circle cx="432" cy="190" r="1.78" fill="#9AD5B3" fill-opacity="0.29"/><circle cx="443" cy="190" r="1.67" fill="#9DD4B5" fill-opacity="0.27"/><circle cx="454" cy="190" r="1.55" fill="#A1D4B7" fill-opacity="0.25"/><circle cx="465" cy="190" r="1.44" fill="#A4D3B9" fill-opacity="0.23"/><circle cx="476" cy="190" r="1.36" fill="#A6D3BB" fill-opacity="0.21"/><circle cx="487" cy="190" r="1.30" fill="#A8D3BC" fill-opacity="0.20"/><circle cx="498" cy="190" r="1.27" fill="#A9D3BC" fill-opacity="0.20"/><circle cx="509" cy="190" r="1.26" fill="#A9D3BD" fill-opacity="0.19"/><circle cx="520" cy="190" r="1.28" fill="#A8D3BC" fill-opacity="0.20"/><circle cx="531" cy="190" r="1.32" fill="#A7D3BB" fill-opacity="0.21"/><circle cx="542" cy="190" r="1.40" fill="#A5D3BA" fill-opacity="0.22"/><circle cx="553" cy="190" r="1.50" fill="#A2D4B8" fill-opacity="0.24"/><circle cx="322" cy="201" r="0.70" fill="#B9D1C7" fill-opacity="0.09"/><circle cx="333" cy="201" r="0.93" fill="#B2D2C3" fill-opacity="0.13"/><circle cx="344" cy="201" r="1.23" fill="#AAD3BD" fill-opacity="0.19"/><circle cx="355" cy="201" r="1.56" fill="#A0D4B7" fill-opacity="0.25"/><circle cx="366" cy="201" r="1.81" fill="#99D5B3" fill-opacity="0.30"/><circle cx="377" cy="201" r="1.92" fill="#96D5B1" fill-opacity="0.32"/><circle cx="388" cy="201" r="1.88" fill="#97D5B1" fill-opacity="0.31"/><circle cx="399" cy="201" r="1.74" fill="#9BD4B4" fill-opacity="0.29"/><circle cx="410" cy="201" r="1.55" fill="#A1D4B7" fill-opacity="0.25"/><circle cx="421" cy="201" r="1.35" fill="#A6D3BB" fill-opacity="0.21"/><circle cx="432" cy="201" r="1.17" fill="#ABD3BE" fill-opacity="0.18"/><circle cx="443" cy="201" r="1.03" fill="#AFD2C1" fill-opacity="0.15"/><circle cx="454" cy="201" r="0.92" fill="#B3D2C3" fill-opacity="0.13"/><circle cx="465" cy="201" r="0.84" fill="#B5D2C4" fill-opacity="0.11"/><circle cx="476" cy="201" r="0.78" fill="#B6D1C5" fill-opacity="0.10"/><circle cx="487" cy="201" r="0.75" fill="#B7D1C6" fill-opacity="0.10"/><circle cx="498" cy="201" r="0.73" fill="#B8D1C6" fill-opacity="0.09"/><circle cx="509" cy="201" r="0.72" fill="#B8D1C6" fill-opacity="0.09"/><circle cx="520" cy="201" r="0.73" fill="#B8D1C6" fill-opacity="0.09"/><circle cx="531" cy="201" r="0.75" fill="#B7D1C6" fill-opacity="0.10"/><circle cx="542" cy="201" r="0.78" fill="#B6D1C5" fill-opacity="0.10"/><circle cx="553" cy="201" r="0.84" fill="#B5D2C4" fill-opacity="0.11"/><circle cx="311" cy="212" r="0.78" fill="#B6D1C5" fill-opacity="0.10"/><circle cx="322" cy="212" r="1.07" fill="#AED2C0" fill-opacity="0.16"/><circle cx="333" cy="212" r="1.42" fill="#A4D3BA" fill-opacity="0.22"/><circle cx="344" cy="212" r="1.71" fill="#9CD4B4" fill-opacity="0.28"/><circle cx="355" cy="212" r="1.84" fill="#98D5B2" fill-opacity="0.31"/><circle cx="366" cy="212" r="1.79" fill="#9AD5B3" fill-opacity="0.30"/><circle cx="377" cy="212" r="1.59" fill="#9FD4B6" fill-opacity="0.26"/><circle cx="388" cy="212" r="1.35" fill="#A6D3BB" fill-opacity="0.21"/><circle cx="399" cy="212" r="1.11" fill="#ADD2BF" fill-opacity="0.17"/><circle cx="410" cy="212" r="0.92" fill="#B3D2C3" fill-opacity="0.13"/><circle cx="421" cy="212" r="0.78" fill="#B7D1C5" fill-opacity="0.10"/><circle cx="432" cy="212" r="0.69" fill="#B9D1C7" fill-opacity="0.09"/><circle cx="289" cy="223" r="0.63" fill="#BBD1C8" fill-opacity="0.08"/><circle cx="300" cy="223" r="0.83" fill="#B5D2C4" fill-opacity="0.11"/><circle cx="311" cy="223" r="1.15" fill="#ACD3BF" fill-opacity="0.17"/><circle cx="322" cy="223" r="1.48" fill="#A3D4B9" fill-opacity="0.24"/><circle cx="333" cy="223" r="1.69" fill="#9DD4B5" fill-opacity="0.28"/><circle cx="344" cy="223" r="1.69" fill="#9DD4B5" fill-opacity="0.28"/><circle cx="355" cy="223" r="1.50" fill="#A2D4B8" fill-opacity="0.24"/><circle cx="366" cy="223" r="1.24" fill="#A9D3BD" fill-opacity="0.19"/><circle cx="377" cy="223" r="0.98" fill="#B1D2C2" fill-opacity="0.14"/><circle cx="388" cy="223" r="0.79" fill="#B6D1C5" fill-opacity="0.11"/><circle cx="399" cy="223" r="0.67" fill="#BAD1C7" fill-opacity="0.08"/><circle cx="278" cy="234" r="0.64" fill="#BBD1C8" fill-opacity="0.08"/><circle cx="289" cy="234" r="0.84" fill="#B5D2C4" fill-opacity="0.12"/><circle cx="300" cy="234" r="1.15" fill="#ACD3BF" fill-opacity="0.17"/><circle cx="311" cy="234" r="1.43" fill="#A4D3B9" fill-opacity="0.23"/><circle cx="322" cy="234" r="1.55" fill="#A1D4B7" fill-opacity="0.25"/><circle cx="333" cy="234" r="1.45" fill="#A3D4B9" fill-opacity="0.23"/><circle cx="344" cy="234" r="1.21" fill="#AAD3BE" fill-opacity="0.18"/><circle cx="355" cy="234" r="0.95" fill="#B2D2C2" fill-opacity="0.14"/><circle cx="366" cy="234" r="0.75" fill="#B7D1C6" fill-opacity="0.10"/><circle cx="278" cy="245" r="0.82" fill="#B5D2C5" fill-opacity="0.11"/><circle cx="289" cy="245" r="1.09" fill="#AED2C0" fill-opacity="0.16"/><circle cx="300" cy="245" r="1.31" fill="#A7D3BC" fill-opacity="0.21"/><circle cx="311" cy="245" r="1.36" fill="#A6D3BB" fill-opacity="0.21"/><circle cx="322" cy="245" r="1.21" fill="#AAD3BD" fill-opacity="0.19"/><circle cx="333" cy="245" r="0.97" fill="#B1D2C2" fill-opacity="0.14"/><circle cx="344" cy="245" r="0.76" fill="#B7D1C6" fill-opacity="0.10"/><circle cx="267" cy="256" r="0.77" fill="#B7D1C6" fill-opacity="0.10"/><circle cx="278" cy="256" r="1.00" fill="#B0D2C1" fill-opacity="0.14"/><circle cx="289" cy="256" r="1.17" fill="#ABD3BE" fill-opacity="0.18"/><circle cx="300" cy="256" r="1.18" fill="#ABD3BE" fill-opacity="0.18"/><circle cx="311" cy="256" r="1.02" fill="#B0D2C1" fill-opacity="0.15"/><circle cx="322" cy="256" r="0.81" fill="#B6D1C5" fill-opacity="0.11"/><circle cx="333" cy="256" r="0.65" fill="#BAD1C8" fill-opacity="0.08"/><circle cx="256" cy="267" r="0.71" fill="#B9D1C7" fill-opacity="0.09"/><circle cx="267" cy="267" r="0.90" fill="#B3D2C3" fill-opacity="0.13"/><circle cx="278" cy="267" r="1.04" fill="#AFD2C1" fill-opacity="0.15"/><circle cx="289" cy="267" r="1.03" fill="#AFD2C1" fill-opacity="0.15"/><circle cx="300" cy="267" r="0.88" fill="#B4D2C3" fill-opacity="0.12"/><circle cx="311" cy="267" r="0.71" fill="#B8D1C7" fill-opacity="0.09"/><circle cx="245" cy="278" r="0.65" fill="#BAD1C8" fill-opacity="0.08"/><circle cx="256" cy="278" r="0.80" fill="#B6D1C5" fill-opacity="0.11"/><circle cx="267" cy="278" r="0.92" fill="#B2D2C3" fill-opacity="0.13"/><circle cx="278" cy="278" r="0.91" fill="#B3D2C3" fill-opacity="0.13"/><circle cx="289" cy="278" r="0.79" fill="#B6D1C5" fill-opacity="0.11"/><circle cx="300" cy="278" r="0.65" fill="#BAD1C8" fill-opacity="0.08"/><circle cx="245" cy="289" r="0.72" fill="#B8D1C6" fill-opacity="0.09"/><circle cx="256" cy="289" r="0.83" fill="#B5D2C5" fill-opacity="0.11"/><circle cx="267" cy="289" r="0.83" fill="#B5D2C5" fill-opacity="0.11"/><circle cx="278" cy="289" r="0.73" fill="#B8D1C6" fill-opacity="0.09"/><circle cx="234" cy="300" r="0.66" fill="#BAD1C8" fill-opacity="0.08"/><circle cx="245" cy="300" r="0.75" fill="#B7D1C6" fill-opacity="0.10"/><circle cx="256" cy="300" r="0.76" fill="#B7D1C6" fill-opacity="0.10"/><circle cx="267" cy="300" r="0.69" fill="#B9D1C7" fill-opacity="0.09"/><circle cx="234" cy="311" r="0.68" fill="#B9D1C7" fill-opacity="0.09"/><circle cx="245" cy="311" r="0.71" fill="#B8D1C7" fill-opacity="0.09"/><circle cx="256" cy="311" r="0.66" fill="#BAD1C8" fill-opacity="0.08"/><circle cx="223" cy="322" r="0.63" fill="#BBD1C8" fill-opacity="0.07"/><circle cx="234" cy="322" r="0.67" fill="#BAD1C7" fill-opacity="0.08"/><circle cx="245" cy="322" r="0.64" fill="#BAD1C8" fill-opacity="0.08"/><circle cx="223" cy="333" r="0.63" fill="#BBD1C8" fill-opacity="0.08"/><circle cx="476" cy="355" r="0.69" fill="#B9D1C7" fill-opacity="0.09"/><circle cx="487" cy="355" r="0.76" fill="#B7D1C6" fill-opacity="0.10"/><circle cx="498" cy="355" r="0.81" fill="#B6D1C5" fill-opacity="0.11"/><circle cx="509" cy="355" r="0.83" fill="#B5D2C4" fill-opacity="0.11"/><circle cx="520" cy="355" r="0.82" fill="#B5D2C5" fill-opacity="0.11"/><circle cx="531" cy="355" r="0.77" fill="#B7D1C6" fill-opacity="0.10"/><circle cx="542" cy="355" r="0.70" fill="#B9D1C7" fill-opacity="0.09"/><circle cx="553" cy="355" r="0.63" fill="#BBD1C8" fill-opacity="0.07"/><circle cx="443" cy="366" r="0.70" fill="#B9D1C7" fill-opacity="0.09"/><circle cx="454" cy="366" r="0.89" fill="#B3D2C3" fill-opacity="0.12"/><circle cx="465" cy="366" r="1.13" fill="#ACD3BF" fill-opacity="0.17"/><circle cx="476" cy="366" r="1.39" fill="#A5D3BA" fill-opacity="0.22"/><circle cx="487" cy="366" r="1.62" fill="#9FD4B6" fill-opacity="0.26"/><circle cx="498" cy="366" r="1.77" fill="#9AD5B3" fill-opacity="0.29"/><circle cx="509" cy="366" r="1.83" fill="#99D5B2" fill-opacity="0.30"/><circle cx="520" cy="366" r="1.79" fill="#9AD5B3" fill-opacity="0.30"/><circle cx="531" cy="366" r="1.65" fill="#9ED4B5" fill-opacity="0.27"/><circle cx="542" cy="366" r="1.44" fill="#A4D3B9" fill-opacity="0.23"/><circle cx="553" cy="366" r="1.18" fill="#ABD3BE" fill-opacity="0.18"/><circle cx="421" cy="377" r="0.68" fill="#B9D1C7" fill-opacity="0.08"/><circle cx="432" cy="377" r="0.94" fill="#B2D2C2" fill-opacity="0.13"/><circle cx="443" cy="377" r="1.35" fill="#A6D3BB" fill-opacity="0.21"/><circle cx="454" cy="377" r="1.86" fill="#98D5B2" fill-opacity="0.31"/><circle cx="465" cy="377" r="2.37" fill="#89D6A8" fill-opacity="0.41"/><circle cx="476" cy="377" r="2.78" fill="#7DD8A1" fill-opacity="0.48"/><circle cx="487" cy="377" r="3.06" fill="#75D99C" fill-opacity="0.54"/><circle cx="498" cy="377" r="3.21" fill="#71D999" fill-opacity="0.57"/><circle cx="509" cy="377" r="3.27" fill="#6FD998" fill-opacity="0.58"/><circle cx="520" cy="377" r="3.23" fill="#70D998" fill-opacity="0.57"/><circle cx="531" cy="377" r="3.10" fill="#74D99B" fill-opacity="0.55"/><circle cx="542" cy="377" r="2.84" fill="#7CD8A0" fill-opacity="0.50"/><circle cx="553" cy="377" r="2.46" fill="#87D7A7" fill-opacity="0.42"/><circle cx="410" cy="388" r="0.78" fill="#B7D1C5" fill-opacity="0.10"/><circle cx="421" cy="388" r="1.21" fill="#AAD3BE" fill-opacity="0.19"/><circle cx="432" cy="388" r="1.87" fill="#97D5B1" fill-opacity="0.31"/><circle cx="443" cy="388" r="2.60" fill="#82D7A4" fill-opacity="0.45"/><circle cx="454" cy="388" r="3.19" fill="#72D999" fill-opacity="0.56"/><circle cx="465" cy="388" r="3.53" fill="#68DA93" fill-opacity="0.63"/><circle cx="476" cy="388" r="3.63" fill="#65DA91" fill-opacity="0.65"/><circle cx="487" cy="388" r="3.60" fill="#66DA92" fill-opacity="0.64"/><circle cx="498" cy="388" r="3.53" fill="#68DA93" fill-opacity="0.63"/><circle cx="509" cy="388" r="3.50" fill="#69DA94" fill-opacity="0.62"/><circle cx="520" cy="388" r="3.53" fill="#68DA93" fill-opacity="0.63"/><circle cx="531" cy="388" r="3.59" fill="#66DA92" fill-opacity="0.64"/><circle cx="542" cy="388" r="3.64" fill="#65DA91" fill-opacity="0.65"/><circle cx="553" cy="388" r="3.58" fill="#66DA92" fill-opacity="0.64"/><circle cx="399" cy="399" r="0.84" fill="#B5D2C4" fill-opacity="0.11"/><circle cx="410" cy="399" r="1.41" fill="#A5D3BA" fill-opacity="0.22"/><circle cx="421" cy="399" r="2.26" fill="#8CD6AA" fill-opacity="0.39"/><circle cx="432" cy="399" r="3.10" fill="#74D99B" fill-opacity="0.55"/><circle cx="443" cy="399" r="3.56" fill="#67DA92" fill-opacity="0.63"/><circle cx="454" cy="399" r="3.56" fill="#67DA92" fill-opacity="0.63"/><circle cx="465" cy="399" r="3.25" fill="#70D998" fill-opacity="0.57"/><circle cx="476" cy="399" r="2.85" fill="#7BD8A0" fill-opacity="0.50"/><circle cx="487" cy="399" r="2.50" fill="#85D7A6" fill-opacity="0.43"/><circle cx="498" cy="399" r="2.28" fill="#8CD6AA" fill-opacity="0.39"/><circle cx="509" cy="399" r="2.20" fill="#8ED6AB" fill-opacity="0.37"/><circle cx="520" cy="399" r="2.26" fill="#8CD6AA" fill-opacity="0.38"/><circle cx="531" cy="399" r="2.45" fill="#87D7A7" fill-opacity="0.42"/><circle cx="542" cy="399" r="2.78" fill="#7DD8A1" fill-opacity="0.49"/><circle cx="553" cy="399" r="3.19" fill="#72D999" fill-opacity="0.56"/><circle cx="388" cy="410" r="0.82" fill="#B5D2C5" fill-opacity="0.11"/><circle cx="399" cy="410" r="1.46" fill="#A3D4B9" fill-opacity="0.23"/><circle cx="410" cy="410" r="2.44" fill="#87D7A7" fill-opacity="0.42"/><circle cx="421" cy="410" r="3.32" fill="#6ED997" fill-opacity="0.59"/><circle cx="432" cy="410" r="3.59" fill="#66DA92" fill-opacity="0.64"/><circle cx="443" cy="410" r="3.22" fill="#71D999" fill-opacity="0.57"/><circle cx="454" cy="410" r="2.55" fill="#84D7A5" fill-opacity="0.44"/><circle cx="465" cy="410" r="1.92" fill="#96D5B1" fill-opacity="0.32"/><circle cx="476" cy="410" r="1.47" fill="#A3D4B9" fill-opacity="0.23"/><circle cx="487" cy="410" r="1.19" fill="#ABD3BE" fill-opacity="0.18"/><circle cx="498" cy="410" r="1.05" fill="#AFD2C0" fill-opacity="0.15"/><circle cx="509" cy="410" r="1.00" fill="#B0D2C1" fill-opacity="0.15"/><circle cx="520" cy="410" r="1.03" fill="#AFD2C1" fill-opacity="0.15"/><circle cx="531" cy="410" r="1.16" fill="#ACD3BE" fill-opacity="0.18"/><circle cx="542" cy="410" r="1.41" fill="#A5D3BA" fill-opacity="0.22"/><circle cx="553" cy="410" r="1.83" fill="#99D5B2" fill-opacity="0.30"/><circle cx="377" cy="421" r="0.74" fill="#B8D1C6" fill-opacity="0.10"/><circle cx="388" cy="421" r="1.34" fill="#A6D3BB" fill-opacity="0.21"/><circle cx="399" cy="421" r="2.39" fill="#88D7A8" fill-opacity="0.41"/><circle cx="410" cy="421" r="3.34" fill="#6DDA96" fill-opacity="0.59"/><circle cx="421" cy="421" r="3.52" fill="#68DA93" fill-opacity="0.63"/><circle cx="432" cy="421" r="2.90" fill="#7AD89F" fill-opacity="0.51"/><circle cx="443" cy="421" r="2.02" fill="#93D5AF" fill-opacity="0.34"/><circle cx="454" cy="421" r="1.33" fill="#A7D3BB" fill-opacity="0.21"/><circle cx="465" cy="421" r="0.93" fill="#B2D2C3" fill-opacity="0.13"/><circle cx="476" cy="421" r="0.72" fill="#B8D1C6" fill-opacity="0.09"/><circle cx="542" cy="421" r="0.70" fill="#B9D1C7" fill-opacity="0.09"/><circle cx="553" cy="421" r="0.88" fill="#B4D2C4" fill-opacity="0.12"/><circle cx="366" cy="432" r="0.64" fill="#BBD1C8" fill-opacity="0.08"/><circle cx="377" cy="432" r="1.11" fill="#ADD2BF" fill-opacity="0.17"/><circle cx="388" cy="432" r="2.12" fill="#90D6AD" fill-opacity="0.36"/><circle cx="399" cy="432" r="3.22" fill="#71D999" fill-opacity="0.57"/><circle cx="410" cy="432" r="3.50" fill="#69DA94" fill-opacity="0.62"/><circle cx="421" cy="432" r="2.79" fill="#7DD8A1" fill-opacity="0.49"/><circle cx="432" cy="432" r="1.78" fill="#9AD5B3" fill-opacity="0.29"/><circle cx="443" cy="432" r="1.06" fill="#AED2C0" fill-opacity="0.16"/><circle cx="454" cy="432" r="0.71" fill="#B8D1C7" fill-opacity="0.09"/><circle cx="366" cy="443" r="0.84" fill="#B5D2C4" fill-opacity="0.11"/><circle cx="377" cy="443" r="1.66" fill="#9DD4B5" fill-opacity="0.27"/><circle cx="388" cy="443" r="2.89" fill="#7AD89F" fill-opacity="0.51"/><circle cx="399" cy="443" r="3.51" fill="#69DA93" fill-opacity="0.62"/><circle cx="410" cy="443" r="2.92" fill="#79D89E" fill-opacity="0.51"/><circle cx="421" cy="443" r="1.80" fill="#99D5B3" fill-opacity="0.30"/><circle cx="432" cy="443" r="1.00" fill="#B0D2C1" fill-opacity="0.15"/><circle cx="443" cy="443" r="0.65" fill="#BAD1C8" fill-opacity="0.08"/><circle cx="355" cy="454" r="0.63" fill="#BBD1C8" fill-opacity="0.08"/><circle cx="366" cy="454" r="1.15" fill="#ACD3BF" fill-opacity="0.17"/><circle cx="377" cy="454" r="2.30" fill="#8BD6AA" fill-opacity="0.39"/><circle cx="388" cy="454" r="3.37" fill="#6DDA96" fill-opacity="0.60"/><circle cx="399" cy="454" r="3.21" fill="#71D999" fill-opacity="0.57"/><circle cx="410" cy="454" r="2.09" fill="#91D6AD" fill-opacity="0.35"/><circle cx="421" cy="454" r="1.10" fill="#ADD2C0" fill-opacity="0.16"/><circle cx="432" cy="454" r="0.65" fill="#BAD1C8" fill-opacity="0.08"/><circle cx="355" cy="465" r="0.76" fill="#B7D1C6" fill-opacity="0.10"/><circle cx="366" cy="465" r="1.55" fill="#A0D4B7" fill-opacity="0.25"/><circle cx="377" cy="465" r="2.84" fill="#7CD8A0" fill-opacity="0.50"/><circle cx="388" cy="465" r="3.44" fill="#6ADA95" fill-opacity="0.61"/><circle cx="399" cy="465" r="2.63" fill="#82D7A4" fill-opacity="0.46"/><circle cx="410" cy="465" r="1.41" fill="#A4D3BA" fill-opacity="0.22"/><circle cx="421" cy="465" r="0.74" fill="#B8D1C6" fill-opacity="0.10"/><circle cx="355" cy="476" r="0.92" fill="#B2D2C3" fill-opacity="0.13"/><circle cx="366" cy="476" r="1.95" fill="#95D5B0" fill-opacity="0.33"/><circle cx="377" cy="476" r="3.19" fill="#72D999" fill-opacity="0.56"/><circle cx="388" cy="476" r="3.24" fill="#70D998" fill-opacity="0.57"/><circle cx="399" cy="476" r="2.05" fill="#92D5AE" fill-opacity="0.35"/><circle cx="410" cy="476" r="1.00" fill="#B0D2C1" fill-opacity="0.15"/><circle cx="355" cy="487" r="1.09" fill="#AED2C0" fill-opacity="0.16"/><circle cx="366" cy="487" r="2.29" fill="#8BD6AA" fill-opacity="0.39"/><circle cx="377" cy="487" r="3.35" fill="#6DDA96" fill-opacity="0.59"/><circle cx="388" cy="487" r="2.93" fill="#79D89E" fill-opacity="0.51"/><circle cx="399" cy="487" r="1.62" fill="#9FD4B6" fill-opacity="0.26"/><circle cx="410" cy="487" r="0.78" fill="#B6D1C5" fill-opacity="0.10"/><circle cx="344" cy="498" r="0.64" fill="#BAD1C8" fill-opacity="0.08"/><circle cx="355" cy="498" r="1.24" fill="#A9D3BD" fill-opacity="0.19"/><circle cx="366" cy="498" r="2.53" fill="#85D7A5" fill-opacity="0.44"/><circle cx="377" cy="498" r="3.39" fill="#6CDA96" fill-opacity="0.60"/><circle cx="388" cy="498" r="2.66" fill="#81D7A3" fill-opacity="0.46"/><circle cx="399" cy="498" r="1.35" fill="#A6D3BB" fill-opacity="0.21"/><circle cx="410" cy="498" r="0.68" fill="#B9D1C7" fill-opacity="0.08"/><circle cx="344" cy="509" r="0.67" fill="#BAD1C7" fill-opacity="0.08"/><circle cx="355" cy="509" r="1.34" fill="#A7D3BB" fill-opacity="0.21"/><circle cx="366" cy="509" r="2.66" fill="#81D7A3" fill-opacity="0.46"/><circle cx="377" cy="509" r="3.38" fill="#6CDA96" fill-opacity="0.60"/><circle cx="388" cy="509" r="2.49" fill="#86D7A6" fill-opacity="0.43"/><circle cx="399" cy="509" r="1.21" fill="#AAD3BD" fill-opacity="0.19"/><circle cx="410" cy="509" r="0.63" fill="#BBD1C8" fill-opacity="0.08"/><circle cx="344" cy="520" r="0.67" fill="#BAD1C7" fill-opacity="0.08"/><circle cx="355" cy="520" r="1.36" fill="#A6D3BB" fill-opacity="0.21"/><circle cx="366" cy="520" r="2.69" fill="#80D7A2" fill-opacity="0.47"/><circle cx="377" cy="520" r="3.37" fill="#6DDA96" fill-opacity="0.60"/><circle cx="388" cy="520" r="2.44" fill="#87D7A7" fill-opacity="0.42"/><circle cx="399" cy="520" r="1.18" fill="#ABD3BE" fill-opacity="0.18"/><circle cx="344" cy="531" r="0.66" fill="#BAD1C8" fill-opacity="0.08"/><circle cx="355" cy="531" r="1.32" fill="#A7D3BC" fill-opacity="0.21"/><circle cx="366" cy="531" r="2.63" fill="#82D7A3" fill-opacity="0.46"/><circle cx="377" cy="531" r="3.38" fill="#6CDA96" fill-opacity="0.60"/><circle cx="388" cy="531" r="2.52" fill="#85D7A5" fill-opacity="0.44"/><circle cx="399" cy="531" r="1.24" fill="#A9D3BD" fill-opacity="0.19"/><circle cx="410" cy="531" r="0.64" fill="#BAD1C8" fill-opacity="0.08"/><circle cx="344" cy="542" r="0.63" fill="#BBD1C8" fill-opacity="0.07"/><circle cx="355" cy="542" r="1.20" fill="#AAD3BE" fill-opacity="0.18"/><circle cx="366" cy="542" r="2.47" fill="#86D7A6" fill-opacity="0.43"/><circle cx="377" cy="542" r="3.38" fill="#6CDA96" fill-opacity="0.60"/><circle cx="388" cy="542" r="2.73" fill="#7FD8A2" fill-opacity="0.47"/><circle cx="399" cy="542" r="1.41" fill="#A4D3BA" fill-opacity="0.22"/><circle cx="410" cy="542" r="0.70" fill="#B9D1C7" fill-opacity="0.09"/><circle cx="355" cy="553" r="1.05" fill="#AFD2C1" fill-opacity="0.15"/><circle cx="366" cy="553" r="2.20" fill="#8ED6AB" fill-opacity="0.37"/><circle cx="377" cy="553" r="3.32" fill="#6ED997" fill-opacity="0.59"/><circle cx="388" cy="553" r="3.02" fill="#77D89C" fill-opacity="0.53"/><circle cx="399" cy="553" r="1.73" fill="#9BD4B4" fill-opacity="0.28"/><circle cx="410" cy="553" r="0.83" fill="#B5D2C4" fill-opacity="0.11"/><circle cx="355" cy="564" r="0.87" fill="#B4D2C4" fill-opacity="0.12"/><circle cx="366" cy="564" r="1.84" fill="#98D5B2" fill-opacity="0.31"/><circle cx="377" cy="564" r="3.11" fill="#74D99B" fill-opacity="0.55"/><circle cx="388" cy="564" r="3.32" fill="#6ED997" fill-opacity="0.59"/><circle cx="399" cy="564" r="2.21" fill="#8ED6AB" fill-opacity="0.38"/><circle cx="410" cy="564" r="1.10" fill="#ADD2C0" fill-opacity="0.16"/><circle cx="355" cy="575" r="0.72" fill="#B8D1C6" fill-opacity="0.09"/><circle cx="366" cy="575" r="1.43" fill="#A4D3B9" fill-opacity="0.23"/><circle cx="377" cy="575" r="2.70" fill="#80D7A2" fill-opacity="0.47"/><circle cx="388" cy="575" r="3.46" fill="#6ADA94" fill-opacity="0.61"/><circle cx="399" cy="575" r="2.81" fill="#7DD8A0" fill-opacity="0.49"/><circle cx="410" cy="575" r="1.58" fill="#A0D4B7" fill-opacity="0.26"/><circle cx="421" cy="575" r="0.82" fill="#B5D2C5" fill-opacity="0.11"/><circle cx="366" cy="586" r="1.05" fill="#AFD2C0" fill-opacity="0.16"/><circle cx="377" cy="586" r="2.12" fill="#90D6AD" fill-opacity="0.36"/><circle cx="388" cy="586" r="3.27" fill="#6FD998" fill-opacity="0.58"/><circle cx="399" cy="586" r="3.35" fill="#6DDA96" fill-opacity="0.59"/><circle cx="410" cy="586" r="2.32" fill="#8AD6A9" fill-opacity="0.40"/><circle cx="421" cy="586" r="1.26" fill="#A9D3BD" fill-opacity="0.20"/><circle cx="432" cy="586" r="0.72" fill="#B8D1C6" fill-opacity="0.09"/><circle cx="366" cy="597" r="0.77" fill="#B7D1C6" fill-opacity="0.10"/><circle cx="377" cy="597" r="1.49" fill="#A2D4B8" fill-opacity="0.24"/><circle cx="388" cy="597" r="2.69" fill="#80D7A2" fill-opacity="0.47"/><circle cx="399" cy="597" r="3.49" fill="#69DA94" fill-opacity="0.62"/><circle cx="410" cy="597" r="3.14" fill="#73D99A" fill-opacity="0.55"/><circle cx="421" cy="597" r="2.07" fill="#92D5AE" fill-opacity="0.35"/><circle cx="432" cy="597" r="1.18" fill="#ABD3BE" fill-opacity="0.18"/><circle cx="443" cy="597" r="0.72" fill="#B8D1C6" fill-opacity="0.09"/><circle cx="377" cy="608" r="0.98" fill="#B1D2C2" fill-opacity="0.14"/><circle cx="388" cy="608" r="1.88" fill="#97D5B1" fill-opacity="0.31"/><circle cx="399" cy="608" r="3.02" fill="#77D89C" fill-opacity="0.53"/><circle cx="410" cy="608" r="3.55" fill="#67DA93" fill-opacity="0.63"/><circle cx="421" cy="608" r="3.06" fill="#75D99C" fill-opacity="0.54"/><circle cx="432" cy="608" r="2.09" fill="#91D6AD" fill-opacity="0.35"/><circle cx="443" cy="608" r="1.28" fill="#A8D3BC" fill-opacity="0.20"/><circle cx="454" cy="608" r="0.83" fill="#B5D2C4" fill-opacity="0.11"/><circle cx="465" cy="608" r="0.63" fill="#BBD1C8" fill-opacity="0.08"/><circle cx="377" cy="619" r="0.68" fill="#B9D1C7" fill-opacity="0.08"/><circle cx="388" cy="619" r="1.16" fill="#ACD3BE" fill-opacity="0.18"/><circle cx="399" cy="619" r="2.11" fill="#91D6AD" fill-opacity="0.36"/><circle cx="410" cy="619" r="3.14" fill="#73D99A" fill-opacity="0.55"/><circle cx="421" cy="619" r="3.58" fill="#67DA92" fill-opacity="0.64"/><circle cx="432" cy="619" r="3.19" fill="#72D999" fill-opacity="0.56"/><circle cx="443" cy="619" r="2.38" fill="#89D6A8" fill-opacity="0.41"/><circle cx="454" cy="619" r="1.64" fill="#9ED4B6" fill-opacity="0.27"/><circle cx="465" cy="619" r="1.14" fill="#ACD3BF" fill-opacity="0.17"/><circle cx="476" cy="619" r="0.86" fill="#B4D2C4" fill-opacity="0.12"/><circle cx="487" cy="619" r="0.72" fill="#B8D1C6" fill-opacity="0.09"/><circle cx="498" cy="619" r="0.66" fill="#BAD1C8" fill-opacity="0.08"/><circle cx="509" cy="619" r="0.64" fill="#BAD1C8" fill-opacity="0.08"/><circle cx="520" cy="619" r="0.66" fill="#BAD1C8" fill-opacity="0.08"/><circle cx="531" cy="619" r="0.71" fill="#B9D1C7" fill-opacity="0.09"/><circle cx="542" cy="619" r="0.83" fill="#B5D2C4" fill-opacity="0.11"/><circle cx="553" cy="619" r="1.08" fill="#AED2C0" fill-opacity="0.16"/><circle cx="388" cy="630" r="0.73" fill="#B8D1C6" fill-opacity="0.09"/><circle cx="399" cy="630" r="1.24" fill="#A9D3BD" fill-opacity="0.19"/><circle cx="410" cy="630" r="2.12" fill="#90D6AD" fill-opacity="0.36"/><circle cx="421" cy="630" r="3.07" fill="#75D99C" fill-opacity="0.54"/><circle cx="432" cy="630" r="3.57" fill="#67DA92" fill-opacity="0.64"/><circle cx="443" cy="630" r="3.46" fill="#6ADA94" fill-opacity="0.61"/><circle cx="454" cy="630" r="2.93" fill="#79D89E" fill-opacity="0.51"/><circle cx="465" cy="630" r="2.32" fill="#8BD6A9" fill-opacity="0.40"/><circle cx="476" cy="630" r="1.83" fill="#99D5B2" fill-opacity="0.30"/><circle cx="487" cy="630" r="1.50" fill="#A2D4B8" fill-opacity="0.24"/><circle cx="498" cy="630" r="1.33" fill="#A7D3BB" fill-opacity="0.21"/><circle cx="509" cy="630" r="1.26" fill="#A9D3BD" fill-opacity="0.20"/><circle cx="520" cy="630" r="1.31" fill="#A7D3BC" fill-opacity="0.20"/><circle cx="531" cy="630" r="1.46" fill="#A3D4B9" fill-opacity="0.23"/><circle cx="542" cy="630" r="1.76" fill="#9AD5B3" fill-opacity="0.29"/><circle cx="553" cy="630" r="2.23" fill="#8DD6AB" fill-opacity="0.38"/><circle cx="399" cy="641" r="0.73" fill="#B8D1C6" fill-opacity="0.09"/><circle cx="410" cy="641" r="1.17" fill="#ABD3BE" fill-opacity="0.18"/><circle cx="421" cy="641" r="1.92" fill="#96D5B1" fill-opacity="0.32"/><circle cx="432" cy="641" r="2.76" fill="#7ED8A1" fill-opacity="0.48"/><circle cx="443" cy="641" r="3.39" fill="#6CDA96" fill-opacity="0.60"/><circle cx="454" cy="641" r="3.62" fill="#65DA91" fill-opacity="0.65"/><circle cx="465" cy="641" r="3.50" fill="#69DA94" fill-opacity="0.62"/><circle cx="476" cy="641" r="3.22" fill="#71D999" fill-opacity="0.57"/><circle cx="487" cy="641" r="2.92" fill="#79D89E" fill-opacity="0.51"/><circle cx="498" cy="641" r="2.72" fill="#7FD8A2" fill-opacity="0.47"/><circle cx="509" cy="641" r="2.64" fill="#81D7A3" fill-opacity="0.46"/><circle cx="520" cy="641" r="2.70" fill="#80D7A2" fill-opacity="0.47"/><circle cx="531" cy="641" r="2.88" fill="#7AD89F" fill-opacity="0.50"/><circle cx="542" cy="641" r="3.17" fill="#72D99A" fill-opacity="0.56"/><circle cx="553" cy="641" r="3.47" fill="#6ADA94" fill-opacity="0.62"/><circle cx="410" cy="652" r="0.68" fill="#B9D1C7" fill-opacity="0.08"/><circle cx="421" cy="652" r="1.00" fill="#B0D2C1" fill-opacity="0.15"/><circle cx="432" cy="652" r="1.54" fill="#A1D4B8" fill-opacity="0.25"/><circle cx="443" cy="652" r="2.21" fill="#8ED6AB" fill-opacity="0.38"/><circle cx="454" cy="652" r="2.84" fill="#7CD8A0" fill-opacity="0.50"/><circle cx="465" cy="652" r="3.30" fill="#6FD997" fill-opacity="0.58"/><circle cx="476" cy="652" r="3.54" fill="#68DA93" fill-opacity="0.63"/><circle cx="487" cy="652" r="3.63" fill="#65DA91" fill-opacity="0.65"/><circle cx="498" cy="652" r="3.64" fill="#65DA91" fill-opacity="0.65"/><circle cx="509" cy="652" r="3.63" fill="#65DA91" fill-opacity="0.65"/><circle cx="520" cy="652" r="3.64" fill="#65DA91" fill-opacity="0.65"/><circle cx="531" cy="652" r="3.64" fill="#65DA91" fill-opacity="0.65"/><circle cx="542" cy="652" r="3.58" fill="#67DA92" fill-opacity="0.64"/><circle cx="553" cy="652" r="3.37" fill="#6CDA96" fill-opacity="0.60"/><circle cx="432" cy="663" r="0.79" fill="#B6D1C5" fill-opacity="0.10"/><circle cx="443" cy="663" r="1.09" fill="#AED2C0" fill-opacity="0.16"/><circle cx="454" cy="663" r="1.50" fill="#A2D4B8" fill-opacity="0.24"/><circle cx="465" cy="663" r="1.95" fill="#95D5B0" fill-opacity="0.33"/><circle cx="476" cy="663" r="2.35" fill="#8AD6A9" fill-opacity="0.40"/><circle cx="487" cy="663" r="2.64" fill="#81D7A3" fill-opacity="0.46"/><circle cx="498" cy="663" r="2.82" fill="#7CD8A0" fill-opacity="0.49"/><circle cx="509" cy="663" r="2.89" fill="#7AD89F" fill-opacity="0.51"/><circle cx="520" cy="663" r="2.85" fill="#7BD8A0" fill-opacity="0.50"/><circle cx="531" cy="663" r="2.69" fill="#80D7A2" fill-opacity="0.47"/><circle cx="542" cy="663" r="2.42" fill="#88D7A7" fill-opacity="0.42"/><circle cx="553" cy="663" r="2.03" fill="#93D5AE" fill-opacity="0.34"/><circle cx="454" cy="674" r="0.74" fill="#B8D1C6" fill-opacity="0.10"/><circle cx="465" cy="674" r="0.91" fill="#B3D2C3" fill-opacity="0.13"/><circle cx="476" cy="674" r="1.10" fill="#ADD2BF" fill-opacity="0.16"/><circle cx="487" cy="674" r="1.28" fill="#A8D3BC" fill-opacity="0.20"/><circle cx="498" cy="674" r="1.40" fill="#A5D3BA" fill-opacity="0.22"/><circle cx="509" cy="674" r="1.45" fill="#A3D4B9" fill-opacity="0.23"/><circle cx="520" cy="674" r="1.42" fill="#A4D3BA" fill-opacity="0.22"/><circle cx="531" cy="674" r="1.31" fill="#A7D3BC" fill-opacity="0.20"/><circle cx="542" cy="674" r="1.14" fill="#ACD3BF" fill-opacity="0.17"/><circle cx="553" cy="674" r="0.95" fill="#B2D2C2" fill-opacity="0.14"/><circle cx="487" cy="685" r="0.65" fill="#BAD1C8" fill-opacity="0.08"/><circle cx="498" cy="685" r="0.68" fill="#B9D1C7" fill-opacity="0.08"/><circle cx="509" cy="685" r="0.70" fill="#B9D1C7" fill-opacity="0.09"/><circle cx="520" cy="685" r="0.69" fill="#B9D1C7" fill-opacity="0.09"/><circle cx="531" cy="685" r="0.66" fill="#BAD1C8" fill-opacity="0.08"/><circle cx="223" cy="707" r="0.63" fill="#BBD1C8" fill-opacity="0.08"/><circle cx="234" cy="707" r="0.64" fill="#BAD1C8" fill-opacity="0.08"/><circle cx="234" cy="718" r="0.68" fill="#B9D1C7" fill-opacity="0.08"/><circle cx="245" cy="718" r="0.66" fill="#BAD1C8" fill-opacity="0.08"/><circle cx="234" cy="729" r="0.68" fill="#B9D1C7" fill-opacity="0.08"/><circle cx="245" cy="729" r="0.73" fill="#B8D1C6" fill-opacity="0.09"/><circle cx="256" cy="729" r="0.69" fill="#B9D1C7" fill-opacity="0.09"/><circle cx="234" cy="740" r="0.64" fill="#BAD1C8" fill-opacity="0.08"/><circle cx="245" cy="740" r="0.75" fill="#B7D1C6" fill-opacity="0.10"/><circle cx="256" cy="740" r="0.79" fill="#B6D1C5" fill-opacity="0.10"/><circle cx="267" cy="740" r="0.73" fill="#B8D1C6" fill-opacity="0.09"/><circle cx="245" cy="751" r="0.71" fill="#B9D1C7" fill-opacity="0.09"/><circle cx="256" cy="751" r="0.83" fill="#B5D2C4" fill-opacity="0.11"/><circle cx="267" cy="751" r="0.86" fill="#B4D2C4" fill-opacity="0.12"/><circle cx="278" cy="751" r="0.78" fill="#B7D1C5" fill-opacity="0.10"/><circle cx="289" cy="751" r="0.65" fill="#BAD1C8" fill-opacity="0.08"/><circle cx="256" cy="762" r="0.78" fill="#B6D1C5" fill-opacity="0.10"/><circle cx="267" cy="762" r="0.93" fill="#B2D2C3" fill-opacity="0.13"/><circle cx="278" cy="762" r="0.96" fill="#B1D2C2" fill-opacity="0.14"/><circle cx="289" cy="762" r="0.86" fill="#B4D2C4" fill-opacity="0.12"/><circle cx="300" cy="762" r="0.70" fill="#B9D1C7" fill-opacity="0.09"/><circle cx="256" cy="773" r="0.67" fill="#BAD1C7" fill-opacity="0.08"/><circle cx="267" cy="773" r="0.87" fill="#B4D2C4" fill-opacity="0.12"/><circle cx="278" cy="773" r="1.05" fill="#AFD2C1" fill-opacity="0.15"/><circle cx="289" cy="773" r="1.09" fill="#AED2C0" fill-opacity="0.16"/><circle cx="300" cy="773" r="0.97" fill="#B1D2C2" fill-opacity="0.14"/><circle cx="311" cy="773" r="0.79" fill="#B6D1C5" fill-opacity="0.10"/><circle cx="322" cy="773" r="0.64" fill="#BBD1C8" fill-opacity="0.08"/><circle cx="267" cy="784" r="0.72" fill="#B8D1C6" fill-opacity="0.09"/><circle cx="278" cy="784" r="0.95" fill="#B2D2C2" fill-opacity="0.14"/><circle cx="289" cy="784" r="1.17" fill="#ABD3BE" fill-opacity="0.18"/><circle cx="300" cy="784" r="1.25" fill="#A9D3BD" fill-opacity="0.19"/><circle cx="311" cy="784" r="1.13" fill="#ADD2BF" fill-opacity="0.17"/><circle cx="322" cy="784" r="0.91" fill="#B3D2C3" fill-opacity="0.13"/><circle cx="333" cy="784" r="0.72" fill="#B8D1C6" fill-opacity="0.09"/><circle cx="278" cy="795" r="0.76" fill="#B7D1C6" fill-opacity="0.10"/><circle cx="289" cy="795" r="1.02" fill="#B0D2C1" fill-opacity="0.15"/><circle cx="300" cy="795" r="1.29" fill="#A8D3BC" fill-opacity="0.20"/><circle cx="311" cy="795" r="1.42" fill="#A4D3BA" fill-opacity="0.23"/><circle cx="322" cy="795" r="1.33" fill="#A7D3BB" fill-opacity="0.21"/><circle cx="333" cy="795" r="1.11" fill="#ADD2BF" fill-opacity="0.17"/><circle cx="344" cy="795" r="0.86" fill="#B4D2C4" fill-opacity="0.12"/><circle cx="355" cy="795" r="0.69" fill="#B9D1C7" fill-opacity="0.09"/><circle cx="289" cy="806" r="0.77" fill="#B7D1C6" fill-opacity="0.10"/><circle cx="300" cy="806" r="1.05" fill="#AFD2C0" fill-opacity="0.16"/><circle cx="311" cy="806" r="1.37" fill="#A6D3BB" fill-opacity="0.22"/><circle cx="322" cy="806" r="1.57" fill="#A0D4B7" fill-opacity="0.25"/><circle cx="333" cy="806" r="1.56" fill="#A0D4B7" fill-opacity="0.25"/><circle cx="344" cy="806" r="1.36" fill="#A6D3BB" fill-opacity="0.21"/><circle cx="355" cy="806" r="1.10" fill="#ADD2C0" fill-opacity="0.16"/><circle cx="366" cy="806" r="0.86" fill="#B4D2C4" fill-opacity="0.12"/><circle cx="377" cy="806" r="0.70" fill="#B9D1C7" fill-opacity="0.09"/><circle cx="300" cy="817" r="0.75" fill="#B7D1C6" fill-opacity="0.10"/><circle cx="311" cy="817" r="1.03" fill="#AFD2C1" fill-opacity="0.15"/><circle cx="322" cy="817" r="1.38" fill="#A5D3BA" fill-opacity="0.22"/><circle cx="333" cy="817" r="1.66" fill="#9DD4B5" fill-opacity="0.27"/><circle cx="344" cy="817" r="1.76" fill="#9BD4B3" fill-opacity="0.29"/><circle cx="355" cy="817" r="1.65" fill="#9ED4B5" fill-opacity="0.27"/><circle cx="366" cy="817" r="1.42" fill="#A4D3BA" fill-opacity="0.23"/><circle cx="377" cy="817" r="1.15" fill="#ACD3BF" fill-opacity="0.17"/><circle cx="388" cy="817" r="0.92" fill="#B2D2C3" fill-opacity="0.13"/><circle cx="399" cy="817" r="0.76" fill="#B7D1C6" fill-opacity="0.10"/><circle cx="410" cy="817" r="0.65" fill="#BAD1C8" fill-opacity="0.08"/><circle cx="311" cy="828" r="0.70" fill="#B9D1C7" fill-opacity="0.09"/><circle cx="322" cy="828" r="0.94" fill="#B2D2C2" fill-opacity="0.13"/><circle cx="333" cy="828" r="1.28" fill="#A8D3BC" fill-opacity="0.20"/><circle cx="344" cy="828" r="1.61" fill="#9FD4B6" fill-opacity="0.26"/><circle cx="355" cy="828" r="1.83" fill="#98D5B2" fill-opacity="0.30"/><circle cx="366" cy="828" r="1.88" fill="#97D5B1" fill-opacity="0.31"/><circle cx="377" cy="828" r="1.76" fill="#9AD5B3" fill-opacity="0.29"/><circle cx="388" cy="828" r="1.54" fill="#A1D4B7" fill-opacity="0.25"/><circle cx="399" cy="828" r="1.30" fill="#A8D3BC" fill-opacity="0.20"/><circle cx="410" cy="828" r="1.09" fill="#AED2C0" fill-opacity="0.16"/><circle cx="421" cy="828" r="0.91" fill="#B3D2C3" fill-opacity="0.13"/><circle cx="432" cy="828" r="0.79" fill="#B6D1C5" fill-opacity="0.11"/><circle cx="443" cy="828" r="0.70" fill="#B9D1C7" fill-opacity="0.09"/><circle cx="454" cy="828" r="0.65" fill="#BAD1C8" fill-opacity="0.08"/><circle cx="322" cy="839" r="0.64" fill="#BBD1C8" fill-opacity="0.08"/><circle cx="333" cy="839" r="0.81" fill="#B6D1C5" fill-opacity="0.11"/><circle cx="344" cy="839" r="1.08" fill="#AED2C0" fill-opacity="0.16"/><circle cx="355" cy="839" r="1.41" fill="#A5D3BA" fill-opacity="0.22"/><circle cx="366" cy="839" r="1.70" fill="#9CD4B4" fill-opacity="0.28"/><circle cx="377" cy="839" r="1.90" fill="#97D5B1" fill-opacity="0.32"/><circle cx="388" cy="839" r="1.96" fill="#95D5B0" fill-opacity="0.33"/><circle cx="399" cy="839" r="1.89" fill="#97D5B1" fill-opacity="0.32"/><circle cx="410" cy="839" r="1.75" fill="#9BD4B4" fill-opacity="0.29"/><circle cx="421" cy="839" r="1.56" fill="#A0D4B7" fill-opacity="0.25"/><circle cx="432" cy="839" r="1.38" fill="#A5D3BA" fill-opacity="0.22"/><circle cx="443" cy="839" r="1.22" fill="#AAD3BD" fill-opacity="0.19"/><circle cx="454" cy="839" r="1.10" fill="#ADD2C0" fill-opacity="0.16"/><circle cx="465" cy="839" r="1.00" fill="#B0D2C1" fill-opacity="0.14"/><circle cx="476" cy="839" r="0.93" fill="#B2D2C3" fill-opacity="0.13"/><circle cx="487" cy="839" r="0.88" fill="#B4D2C4" fill-opacity="0.12"/><circle cx="498" cy="839" r="0.86" fill="#B4D2C4" fill-opacity="0.12"/><circle cx="509" cy="839" r="0.85" fill="#B5D2C4" fill-opacity="0.12"/><circle cx="520" cy="839" r="0.86" fill="#B4D2C4" fill-opacity="0.12"/><circle cx="531" cy="839" r="0.88" fill="#B4D2C4" fill-opacity="0.12"/><circle cx="542" cy="839" r="0.93" fill="#B2D2C3" fill-opacity="0.13"/><circle cx="553" cy="839" r="1.00" fill="#B0D2C1" fill-opacity="0.15"/><circle cx="344" cy="850" r="0.68" fill="#B9D1C7" fill-opacity="0.08"/><circle cx="355" cy="850" r="0.86" fill="#B4D2C4" fill-opacity="0.12"/><circle cx="366" cy="850" r="1.10" fill="#ADD2BF" fill-opacity="0.16"/><circle cx="377" cy="850" r="1.38" fill="#A5D3BA" fill-opacity="0.22"/><circle cx="388" cy="850" r="1.64" fill="#9ED4B6" fill-opacity="0.27"/><circle cx="399" cy="850" r="1.84" fill="#98D5B2" fill-opacity="0.30"/><circle cx="410" cy="850" r="1.95" fill="#95D5B0" fill-opacity="0.33"/><circle cx="421" cy="850" r="1.97" fill="#94D5AF" fill-opacity="0.33"/><circle cx="432" cy="850" r="1.94" fill="#95D5B0" fill-opacity="0.32"/><circle cx="443" cy="850" r="1.86" fill="#98D5B2" fill-opacity="0.31"/><circle cx="454" cy="850" r="1.76" fill="#9AD5B3" fill-opacity="0.29"/><circle cx="465" cy="850" r="1.67" fill="#9DD4B5" fill-opacity="0.27"/><circle cx="476" cy="850" r="1.59" fill="#9FD4B6" fill-opacity="0.26"/><circle cx="487" cy="850" r="1.54" fill="#A1D4B8" fill-opacity="0.25"/><circle cx="498" cy="850" r="1.50" fill="#A2D4B8" fill-opacity="0.24"/><circle cx="509" cy="850" r="1.49" fill="#A2D4B8" fill-opacity="0.24"/><circle cx="520" cy="850" r="1.51" fill="#A2D4B8" fill-opacity="0.24"/><circle cx="531" cy="850" r="1.56" fill="#A0D4B7" fill-opacity="0.25"/><circle cx="542" cy="850" r="1.63" fill="#9ED4B6" fill-opacity="0.27"/><circle cx="553" cy="850" r="1.72" fill="#9CD4B4" fill-opacity="0.28"/><circle cx="366" cy="861" r="0.67" fill="#BAD1C7" fill-opacity="0.08"/><circle cx="377" cy="861" r="0.81" fill="#B6D1C5" fill-opacity="0.11"/><circle cx="388" cy="861" r="0.99" fill="#B0D2C1" fill-opacity="0.14"/><circle cx="399" cy="861" r="1.20" fill="#AAD3BE" fill-opacity="0.18"/><circle cx="410" cy="861" r="1.41" fill="#A5D3BA" fill-opacity="0.22"/><circle cx="421" cy="861" r="1.59" fill="#9FD4B6" fill-opacity="0.26"/><circle cx="432" cy="861" r="1.74" fill="#9BD4B4" fill-opacity="0.29"/><circle cx="443" cy="861" r="1.84" fill="#98D5B2" fill-opacity="0.31"/><circle cx="454" cy="861" r="1.90" fill="#96D5B1" fill-opacity="0.32"/><circle cx="465" cy="861" r="1.93" fill="#96D5B0" fill-opacity="0.32"/><circle cx="476" cy="861" r="1.94" fill="#95D5B0" fill-opacity="0.33"/><circle cx="487" cy="861" r="1.95" fill="#95D5B0" fill-opacity="0.33"/><circle cx="498" cy="861" r="1.95" fill="#95D5B0" fill-opacity="0.33"/><circle cx="509" cy="861" r="1.97" fill="#95D5B0" fill-opacity="0.33"/><circle cx="520" cy="861" r="1.99" fill="#94D5AF" fill-opacity="0.33"/><circle cx="531" cy="861" r="2.01" fill="#93D5AF" fill-opacity="0.34"/><circle cx="542" cy="861" r="2.04" fill="#92D5AE" fill-opacity="0.34"/><circle cx="553" cy="861" r="2.06" fill="#92D5AE" fill-opacity="0.35"/><circle cx="399" cy="872" r="0.70" fill="#B9D1C7" fill-opacity="0.09"/><circle cx="410" cy="872" r="0.80" fill="#B6D1C5" fill-opacity="0.11"/><circle cx="421" cy="872" r="0.93" fill="#B2D2C3" fill-opacity="0.13"/><circle cx="432" cy="872" r="1.06" fill="#AED2C0" fill-opacity="0.16"/><circle cx="443" cy="872" r="1.19" fill="#ABD3BE" fill-opacity="0.18"/><circle cx="454" cy="872" r="1.30" fill="#A8D3BC" fill-opacity="0.20"/><circle cx="465" cy="872" r="1.40" fill="#A5D3BA" fill-opacity="0.22"/><circle cx="476" cy="872" r="1.48" fill="#A3D4B9" fill-opacity="0.24"/><circle cx="487" cy="872" r="1.53" fill="#A1D4B8" fill-opacity="0.25"/><circle cx="498" cy="872" r="1.58" fill="#A0D4B7" fill-opacity="0.26"/><circle cx="509" cy="872" r="1.60" fill="#9FD4B6" fill-opacity="0.26"/><circle cx="520" cy="872" r="1.62" fill="#9FD4B6" fill-opacity="0.26"/><circle cx="531" cy="872" r="1.62" fill="#9FD4B6" fill-opacity="0.26"/><circle cx="542" cy="872" r="1.59" fill="#9FD4B6" fill-opacity="0.26"/><circle cx="553" cy="872" r="1.54" fill="#A1D4B7" fill-opacity="0.25"/><circle cx="432" cy="883" r="0.63" fill="#BBD1C8" fill-opacity="0.07"/><circle cx="443" cy="883" r="0.68" fill="#B9D1C7" fill-opacity="0.08"/><circle cx="454" cy="883" r="0.73" fill="#B8D1C6" fill-opacity="0.09"/><circle cx="465" cy="883" r="0.79" fill="#B6D1C5" fill-opacity="0.10"/><circle cx="476" cy="883" r="0.83" fill="#B5D2C4" fill-opacity="0.11"/><circle cx="487" cy="883" r="0.87" fill="#B4D2C4" fill-opacity="0.12"/><circle cx="498" cy="883" r="0.90" fill="#B3D2C3" fill-opacity="0.13"/><circle cx="509" cy="883" r="0.92" fill="#B2D2C3" fill-opacity="0.13"/><circle cx="520" cy="883" r="0.93" fill="#B2D2C3" fill-opacity="0.13"/><circle cx="531" cy="883" r="0.92" fill="#B2D2C3" fill-opacity="0.13"/><circle cx="542" cy="883" r="0.90" fill="#B3D2C3" fill-opacity="0.13"/><circle cx="553" cy="883" r="0.86" fill="#B4D2C4" fill-opacity="0.12"/></svg>